<svg width="14" height="14" viewBox="0 0 14 14" fill="none" xmlns="http://www.w3.org/2000/svg">
<g id="icon-search" clip-path="url(#clip0_103_56)">
<path id="Union" fill-rule="evenodd" clip-rule="evenodd" d="M9.30611 11.0945C8.38053 11.8385 7.20459 12.2837 5.92468 12.2837C2.94149 12.2837 0.523132 9.8653 0.523132 6.88211C0.523132 3.89891 2.94149 1.48056 5.92468 1.48056C8.90787 1.48056 11.3262 3.89891 11.3262 6.88211C11.3262 7.98519 10.9956 9.01104 10.428 9.86596L13.3325 12.7704L12.1572 13.9457L9.30611 11.0945ZM9.66421 6.88211C9.66421 8.94739 7.98996 10.6216 5.92468 10.6216C3.85939 10.6216 2.18515 8.94739 2.18515 6.88211C2.18515 4.81682 3.85939 3.14257 5.92468 3.14257C7.98996 3.14257 9.66421 4.81682 9.66421 6.88211Z" fill="black"/>
</g>
<defs>
<clipPath id="clip0_103_56">
<rect width="13.2961" height="13.2961" fill="white" transform="translate(0.523132 0.649555)"/>
</clipPath>
</defs>
</svg>
